<svg width="32" height="32" viewBox="0 0 32 32" fill="none" xmlns="http://www.w3.org/2000/svg">
<path d="M21.3583 13.573H3.38438C3.19489 13.573 3.01317 13.6496 2.87918 13.7859C2.74519 13.9222 2.66992 14.107 2.66992 14.2998V17.6913C2.66992 17.884 2.74519 18.0689 2.87918 18.2052C3.01317 18.3415 3.19489 18.418 3.38438 18.418H21.3583V21.2072C21.3583 21.4948 21.4421 21.7758 21.5991 22.0149C21.7561 22.254 21.9792 22.4403 22.2404 22.5503C22.5015 22.6604 22.7888 22.6891 23.0661 22.633C23.3433 22.5769 23.5979 22.4385 23.7977 22.2351L28.9213 17.0234C29.054 16.8885 29.1593 16.7282 29.2311 16.5518C29.303 16.3755 29.3399 16.1864 29.3399 15.9955C29.3399 15.8046 29.303 15.6156 29.2311 15.4392C29.1593 15.2629 29.054 15.1026 28.9213 14.9676L23.7977 9.75592C23.5979 9.55259 23.3433 9.41412 23.0661 9.35802C22.7888 9.30192 22.5015 9.3307 22.2404 9.44073C21.9792 9.55076 21.7561 9.7371 21.5991 9.97617C21.4421 10.2152 21.3583 10.4963 21.3583 10.7838V13.573Z" fill="black"/>
</svg>
