<svg width="32" height="32" viewBox="0 0 32 32" fill="none" xmlns="http://www.w3.org/2000/svg">
<g clip-path="url(#clip0_63_8170)">
<path fill-rule="evenodd" clip-rule="evenodd" d="M16.0147 19.5948L24.9859 28.5661C25.462 29.0421 26.1076 29.3095 26.7809 29.3095C27.4541 29.3095 28.0998 29.0421 28.5758 28.5661C29.0518 28.09 29.3193 27.4444 29.3193 26.7711C29.3193 26.0979 29.0518 25.4522 28.5758 24.9762L19.6011 16.0049L28.5741 7.03364C28.8097 6.79793 28.9966 6.51812 29.124 6.21019C29.2515 5.90225 29.3171 5.57223 29.317 5.23896C29.3169 4.90569 29.2512 4.5757 29.1236 4.26782C28.996 3.95995 28.809 3.68023 28.5733 3.44463C28.3375 3.20902 28.0577 3.02216 27.7498 2.89469C27.4419 2.76723 27.1118 2.70166 26.7786 2.70174C26.4453 2.70182 26.1153 2.76754 25.8074 2.89515C25.4996 3.02276 25.2198 3.20976 24.9842 3.44547L16.0147 12.4167L7.04338 3.44547C6.80941 3.203 6.52949 3.00955 6.21995 2.87641C5.91042 2.74327 5.57747 2.67311 5.24053 2.67003C4.90359 2.66694 4.56941 2.73099 4.25749 2.85844C3.94557 2.98588 3.66215 3.17417 3.42378 3.41232C3.18541 3.65047 2.99685 3.93371 2.86911 4.24551C2.74137 4.55731 2.67701 4.89143 2.67977 5.22837C2.68254 5.56531 2.75239 5.89833 2.88523 6.20799C3.01808 6.51765 3.21126 6.79775 3.45352 7.03195L12.4282 16.0049L3.45521 24.9779C3.21295 25.2121 3.01977 25.4922 2.88692 25.8019C2.75408 26.1115 2.68423 26.4445 2.68146 26.7815C2.6787 27.1184 2.74306 27.4525 2.8708 27.7643C2.99854 28.0761 3.1871 28.3594 3.42547 28.5975C3.66385 28.8357 3.94726 29.024 4.25918 29.1514C4.5711 29.2789 4.90528 29.3429 5.24222 29.3398C5.57916 29.3367 5.91211 29.2666 6.22165 29.1334C6.53118 29.0003 6.8111 28.8068 7.04507 28.5644L16.0147 19.5948Z" fill="black"/>
</g>
<defs>
<clipPath id="clip0_63_8170">
<rect width="32" height="32" fill="white"/>
</clipPath>
</defs>
</svg>
