<svg width="32" height="32" viewBox="0 0 32 32" fill="none" xmlns="http://www.w3.org/2000/svg">
<path d="M28.3399 24.6394V27.1064C28.3399 27.4405 28.2382 27.7296 28.0348 27.9737C27.8313 28.2179 27.5904 28.3399 27.312 28.3399H4.69784C4.41944 28.3399 4.17853 28.2179 3.97508 27.9737C3.77164 27.7296 3.66992 27.4405 3.66992 27.1064V24.6394C3.66992 24.3053 3.77164 24.0162 3.97508 23.7721C4.17853 23.528 4.41944 23.4059 4.69784 23.4059H27.312C27.5904 23.4059 27.8313 23.528 28.0348 23.7721C28.2382 24.0162 28.3399 24.3053 28.3399 24.6394ZM28.3399 14.7714V17.2384C28.3399 17.5725 28.2382 17.8616 28.0348 18.1057C27.8313 18.3499 27.5904 18.4719 27.312 18.4719H4.69784C4.41944 18.4719 4.17853 18.3499 3.97508 18.1057C3.77164 17.8616 3.66992 17.5725 3.66992 17.2384V14.7714C3.66992 14.4373 3.77164 14.1482 3.97508 13.9041C4.17853 13.66 4.41944 13.5379 4.69784 13.5379H27.312C27.5904 13.5379 27.8313 13.66 28.0348 13.9041C28.2382 14.1482 28.3399 14.4373 28.3399 14.7714ZM28.3399 4.90342V7.37042C28.3399 7.70449 28.2382 7.9936 28.0348 8.23773C27.8313 8.48186 27.5904 8.60392 27.312 8.60392H4.69784C4.41944 8.60392 4.17853 8.48186 3.97508 8.23773C3.77164 7.9936 3.66992 7.70449 3.66992 7.37042V4.90342C3.66992 4.56935 3.77164 4.28025 3.97508 4.03612C4.17853 3.79199 4.41944 3.66992 4.69784 3.66992H27.312C27.5904 3.66992 27.8313 3.79199 28.0348 4.03612C28.2382 4.28025 28.3399 4.56935 28.3399 4.90342Z" fill="black"/>
</svg>
