<svg width="229" height="16" viewBox="0 0 229 16" fill="none" xmlns="http://www.w3.org/2000/svg">
<path d="M219.882 0.22229H227.326C227.712 0.22229 228.03 0.348216 228.282 0.600068C228.549 0.837105 228.682 1.14822 228.682 1.5334C228.682 1.90377 228.549 2.20748 228.282 2.44451C228.03 2.66673 227.712 2.77785 227.326 2.77785H221.104L221.304 2.40007V6.7334L221.126 6.55562H226.326C226.712 6.55562 227.03 6.68155 227.282 6.9334C227.549 7.17044 227.682 7.48155 227.682 7.86673C227.682 8.23711 227.549 8.54081 227.282 8.77785C227.03 9.00007 226.712 9.11118 226.326 9.11118H221.193L221.304 8.9334V13.4223L221.126 13.2223H227.326C227.712 13.2223 228.03 13.3556 228.282 13.6223C228.549 13.8741 228.682 14.1704 228.682 14.5112C228.682 14.8815 228.549 15.1853 228.282 15.4223C228.03 15.6593 227.712 15.7778 227.326 15.7778H219.882C219.497 15.7778 219.171 15.6519 218.904 15.4001C218.652 15.1334 218.526 14.8075 218.526 14.4223V1.57785C218.526 1.19266 218.652 0.874142 218.904 0.62229C219.171 0.355623 219.497 0.22229 219.882 0.22229Z" fill="black"/>
<path d="M202.982 15.7778C202.567 15.7778 202.226 15.6519 201.959 15.4001C201.707 15.1334 201.582 14.8075 201.582 14.4223V1.57785C201.582 1.19266 201.707 0.874142 201.959 0.62229C202.226 0.355623 202.552 0.22229 202.937 0.22229H210.159C210.545 0.22229 210.863 0.348216 211.115 0.600068C211.382 0.837105 211.515 1.14822 211.515 1.5334C211.515 1.85933 211.382 2.14822 211.115 2.40007C210.863 2.65192 210.545 2.77785 210.159 2.77785H204.159L204.359 2.51118V6.97785L204.204 6.68896H209.159C209.545 6.68896 209.863 6.81488 210.115 7.06673C210.382 7.30377 210.515 7.61488 210.515 8.00007C210.515 8.32599 210.382 8.61488 210.115 8.86674C209.863 9.11859 209.545 9.24451 209.159 9.24451H204.159L204.359 9.04451V14.4223C204.359 14.8075 204.219 15.1334 203.937 15.4001C203.67 15.6519 203.352 15.7778 202.982 15.7778Z" fill="black"/>
<path d="M193.773 14.4223C193.773 14.8075 193.632 15.1334 193.351 15.4001C193.069 15.6519 192.743 15.7778 192.373 15.7778C191.958 15.7778 191.625 15.6519 191.373 15.4001C191.121 15.1334 190.995 14.8075 190.995 14.4223V1.57785C190.995 1.19266 191.128 0.874142 191.395 0.62229C191.662 0.355623 192.003 0.22229 192.417 0.22229C192.773 0.22229 193.084 0.355623 193.351 0.62229C193.632 0.874142 193.773 1.19266 193.773 1.57785V14.4223Z" fill="black"/>
<path d="M182.628 13.1778C183.013 13.1778 183.331 13.3038 183.583 13.5556C183.85 13.7927 183.983 14.1038 183.983 14.489C183.983 14.8593 183.85 15.1704 183.583 15.4223C183.331 15.6593 183.013 15.7778 182.628 15.7778H175.405C175.02 15.7778 174.694 15.6519 174.428 15.4001C174.176 15.1334 174.05 14.8075 174.05 14.4223V1.57785C174.05 1.19266 174.183 0.874142 174.45 0.62229C174.716 0.355623 175.057 0.22229 175.472 0.22229C175.828 0.22229 176.139 0.355623 176.405 0.62229C176.687 0.874142 176.828 1.19266 176.828 1.57785V13.5556L176.339 13.1778H182.628Z" fill="black"/>
<path d="M160.365 0.22229C161.432 0.22229 162.38 0.42229 163.209 0.82229C164.039 1.22229 164.735 1.78525 165.298 2.51118C165.876 3.22229 166.306 4.05192 166.587 5.00007C166.883 5.9334 167.032 6.9334 167.032 8.00007C167.032 9.43711 166.772 10.7482 166.254 11.9334C165.735 13.1038 164.98 14.0371 163.987 14.7334C163.009 15.4297 161.802 15.7778 160.365 15.7778H155.054C154.669 15.7778 154.343 15.6519 154.076 15.4001C153.824 15.1334 153.698 14.8075 153.698 14.4223V1.57785C153.698 1.19266 153.824 0.874142 154.076 0.62229C154.343 0.355623 154.669 0.22229 155.054 0.22229H160.365ZM160.143 13.2223C161.076 13.2223 161.839 12.9853 162.432 12.5112C163.024 12.0223 163.454 11.3853 163.72 10.6001C164.002 9.80007 164.143 8.9334 164.143 8.00007C164.143 7.30377 164.061 6.64451 163.898 6.02229C163.75 5.38525 163.513 4.8297 163.187 4.35562C162.861 3.86673 162.446 3.48155 161.943 3.20007C161.439 2.91859 160.839 2.77785 160.143 2.77785H156.254L156.476 2.57785V13.4667L156.343 13.2223H160.143Z" fill="black"/>
<path d="M137.87 0.22229H145.314C145.699 0.22229 146.018 0.348216 146.27 0.600068C146.536 0.837105 146.67 1.14822 146.67 1.5334C146.67 1.90377 146.536 2.20748 146.27 2.44451C146.018 2.66673 145.699 2.77785 145.314 2.77785H139.092L139.292 2.40007V6.7334L139.114 6.55562H144.314C144.699 6.55562 145.018 6.68155 145.27 6.9334C145.536 7.17044 145.67 7.48155 145.67 7.86673C145.67 8.23711 145.536 8.54081 145.27 8.77785C145.018 9.00007 144.699 9.11118 144.314 9.11118H139.181L139.292 8.9334V13.4223L139.114 13.2223H145.314C145.699 13.2223 146.018 13.3556 146.27 13.6223C146.536 13.8741 146.67 14.1704 146.67 14.5112C146.67 14.8815 146.536 15.1853 146.27 15.4223C146.018 15.6593 145.699 15.7778 145.314 15.7778H137.87C137.485 15.7778 137.159 15.6519 136.892 15.4001C136.64 15.1334 136.514 14.8075 136.514 14.4223V1.57785C136.514 1.19266 136.64 0.874142 136.892 0.62229C137.159 0.355623 137.485 0.22229 137.87 0.22229Z" fill="black"/>
<path d="M128.147 13.1778C128.532 13.1778 128.851 13.3038 129.103 13.5556C129.369 13.7927 129.503 14.1038 129.503 14.489C129.503 14.8593 129.369 15.1704 129.103 15.4223C128.851 15.6593 128.532 15.7778 128.147 15.7778H120.925C120.54 15.7778 120.214 15.6519 119.947 15.4001C119.695 15.1334 119.569 14.8075 119.569 14.4223V1.57785C119.569 1.19266 119.703 0.874142 119.969 0.62229C120.236 0.355623 120.577 0.22229 120.992 0.22229C121.347 0.22229 121.658 0.355623 121.925 0.62229C122.206 0.874142 122.347 1.19266 122.347 1.57785V13.5556L121.858 13.1778H128.147Z" fill="black"/>
<path d="M111.776 0.15564C112.116 0.15564 112.42 0.288973 112.687 0.555638C112.968 0.807491 113.109 1.13342 113.109 1.53342C113.109 1.66675 113.087 1.80749 113.042 1.95564C113.013 2.08897 112.953 2.22231 112.865 2.35564L107.82 9.57786L108.22 8.04453V14.4223C108.22 14.8075 108.087 15.1334 107.82 15.4001C107.568 15.6519 107.272 15.7779 106.931 15.7779C106.561 15.7779 106.242 15.6519 105.976 15.4001C105.724 15.1334 105.598 14.8075 105.598 14.4223V8.22231L105.776 8.93342L100.976 2.55564C100.828 2.36305 100.724 2.17786 100.665 2.00008C100.605 1.82231 100.576 1.65934 100.576 1.51119C100.576 1.11119 100.731 0.785269 101.042 0.533417C101.353 0.281565 101.672 0.15564 101.998 0.15564C102.413 0.15564 102.776 0.363047 103.087 0.777862L107.353 6.66675L106.731 6.57786L110.665 0.822306C110.976 0.377862 111.346 0.15564 111.776 0.15564Z" fill="black"/>
<path d="M88.5372 15.7778C88.1224 15.7778 87.7816 15.6519 87.515 15.4001C87.2483 15.1334 87.115 14.8075 87.115 14.4223V1.5334H90.0038V14.4223C90.0038 14.8075 89.8631 15.1334 89.5816 15.4001C89.315 15.6519 88.9668 15.7778 88.5372 15.7778ZM83.6261 2.77785C83.2409 2.77785 82.915 2.65933 82.6483 2.42229C82.3964 2.18525 82.2705 1.87414 82.2705 1.48896C82.2705 1.10377 82.3964 0.800068 82.6483 0.577846C82.915 0.340809 83.2409 0.22229 83.6261 0.22229H93.4927C93.8779 0.22229 94.1964 0.340809 94.4483 0.577846C94.715 0.814883 94.8483 1.12599 94.8483 1.51118C94.8483 1.89636 94.715 2.20748 94.4483 2.44451C94.1964 2.66673 93.8779 2.77785 93.4927 2.77785H83.6261Z" fill="black"/>
<path d="M70.5444 16C69.5073 16 68.574 15.8741 67.7444 15.6222C66.9148 15.3556 66.1222 14.8963 65.3666 14.2444C65.174 14.0815 65.0259 13.8963 64.9222 13.6889C64.8185 13.4815 64.7666 13.2741 64.7666 13.0667C64.7666 12.7259 64.8851 12.4296 65.1222 12.1778C65.374 11.9111 65.6851 11.7778 66.0555 11.7778C66.337 11.7778 66.5888 11.8667 66.811 12.0444C67.374 12.5037 67.9296 12.8519 68.4777 13.0889C69.0407 13.3259 69.7296 13.4444 70.5444 13.4444C71.0925 13.4444 71.5962 13.363 72.0555 13.2C72.5148 13.0222 72.8851 12.7926 73.1666 12.5111C73.4481 12.2148 73.5888 11.8815 73.5888 11.5111C73.5888 11.0667 73.4555 10.6889 73.1888 10.3778C72.9222 10.0667 72.5148 9.80741 71.9666 9.6C71.4185 9.37778 70.7222 9.20741 69.8777 9.08889C69.0777 8.97037 68.374 8.79259 67.7666 8.55556C67.1592 8.3037 66.6481 7.99259 66.2333 7.62222C65.8333 7.23704 65.5296 6.79259 65.3222 6.28889C65.1148 5.77037 65.011 5.19259 65.011 4.55556C65.011 3.59259 65.2555 2.77037 65.7444 2.08889C66.2481 1.40741 66.9222 0.888888 67.7666 0.533333C68.611 0.177778 69.5444 0 70.5666 0C71.5296 0 72.4185 0.148148 73.2333 0.444444C74.0629 0.725926 74.737 1.08889 75.2555 1.53333C75.6851 1.87407 75.8999 2.26667 75.8999 2.71111C75.8999 3.03704 75.774 3.33333 75.5222 3.6C75.2703 3.86667 74.974 4 74.6333 4C74.411 4 74.211 3.93333 74.0333 3.8C73.7962 3.59259 73.4777 3.4 73.0777 3.22222C72.6777 3.02963 72.2555 2.87407 71.811 2.75556C71.3666 2.62222 70.9518 2.55556 70.5666 2.55556C69.9296 2.55556 69.3888 2.63704 68.9444 2.8C68.5147 2.96296 68.1888 3.18519 67.9666 3.46667C67.7444 3.74815 67.6333 4.07407 67.6333 4.44444C67.6333 4.88889 67.7592 5.25926 68.011 5.55556C68.2777 5.83704 68.6555 6.06667 69.1444 6.24444C69.6333 6.40741 70.2185 6.55556 70.8999 6.68889C71.7888 6.85185 72.5666 7.04444 73.2333 7.26667C73.9148 7.48889 74.4777 7.77778 74.9222 8.13333C75.3666 8.47408 75.6999 8.91111 75.9222 9.44444C76.1444 9.96296 76.2555 10.6 76.2555 11.3556C76.2555 12.3185 75.9888 13.1481 75.4555 13.8444C74.9222 14.5407 74.2185 15.0741 73.3444 15.4444C72.4851 15.8148 71.5518 16 70.5444 16Z" fill="black"/>
<path d="M40.339 0.22229H48.4946C48.6724 0.22229 48.8279 0.288957 48.9613 0.42229C49.0946 0.540809 49.1613 0.696365 49.1613 0.888957C49.1613 1.08155 49.0946 1.23711 48.9613 1.35562C48.8279 1.47414 48.6724 1.5334 48.4946 1.5334H40.8501L41.0724 1.15562V7.40007L40.8279 7.11118H47.4946C47.6724 7.11118 47.8279 7.17785 47.9613 7.31118C48.0946 7.44451 48.1613 7.60007 48.1613 7.77785C48.1613 7.97044 48.0946 8.126 47.9613 8.24451C47.8279 8.36303 47.6724 8.42229 47.4946 8.42229H40.8724L41.0724 8.20007V14.6001L40.9613 14.4667H48.4946C48.6724 14.4667 48.8279 14.5334 48.9613 14.6667C49.0946 14.8001 49.1613 14.9556 49.1613 15.1334C49.1613 15.326 49.0946 15.4815 48.9613 15.6001C48.8279 15.7186 48.6724 15.7778 48.4946 15.7778H40.339C40.1613 15.7778 40.0057 15.7112 39.8724 15.5778C39.739 15.4445 39.6724 15.289 39.6724 15.1112V0.888957C39.6724 0.711179 39.739 0.555624 39.8724 0.42229C40.0057 0.288957 40.1613 0.22229 40.339 0.22229Z" fill="black"/>
<path d="M19.922 0.22229C20.0998 0.22229 20.2554 0.288957 20.3887 0.42229C20.5369 0.555624 20.6109 0.718587 20.6109 0.911179V15.089C20.5961 15.2815 20.5146 15.4445 20.3665 15.5778C20.2332 15.7112 20.0776 15.7778 19.8998 15.7778C19.6924 15.7778 19.522 15.7112 19.3887 15.5778C19.2702 15.4445 19.2109 15.2815 19.2109 15.089V0.911179C19.2109 0.718587 19.2776 0.555624 19.4109 0.42229C19.5443 0.288957 19.7146 0.22229 19.922 0.22229ZM30.3443 0.22229C30.5517 0.22229 30.7146 0.288957 30.8332 0.42229C30.9665 0.555624 31.0332 0.718587 31.0332 0.911179V15.089C31.0183 15.2815 30.9443 15.4445 30.8109 15.5778C30.6924 15.7112 30.5295 15.7778 30.3221 15.7778C30.1295 15.7778 29.9665 15.7112 29.8332 15.5778C29.6998 15.4445 29.6332 15.2815 29.6332 15.089V0.911179C29.6332 0.718587 29.6998 0.555624 29.8332 0.42229C29.9813 0.288957 30.1517 0.22229 30.3443 0.22229ZM19.8109 7.17785H30.3665L30.3443 8.46673H19.722L19.8109 7.17785Z" fill="black"/>
<path d="M5.95556 15.7778C5.74815 15.7778 5.57778 15.7112 5.44444 15.5778C5.32593 15.4445 5.26667 15.289 5.26667 15.1112V0.955623H6.64444V15.1112C6.64444 15.289 6.57778 15.4445 6.44444 15.5778C6.31111 15.7112 6.14815 15.7778 5.95556 15.7778ZM0.666667 1.48896C0.488889 1.48896 0.333333 1.4297 0.2 1.31118C0.0666667 1.19266 0 1.0371 0 0.844512C0 0.666735 0.0666667 0.518587 0.2 0.400068C0.333333 0.281549 0.488889 0.22229 0.666667 0.22229H11.2444C11.4222 0.22229 11.5778 0.281549 11.7111 0.400068C11.8444 0.518587 11.9111 0.674143 11.9111 0.866735C11.9111 1.05933 11.8444 1.21488 11.7111 1.3334C11.5778 1.43711 11.4222 1.48896 11.2444 1.48896H0.666667Z" fill="black"/>
</svg>
