<svg width="32" height="32" viewBox="0 0 32 32" fill="none" xmlns="http://www.w3.org/2000/svg">
<path d="M5.33366 26.6667C4.60033 26.6667 3.97277 26.4058 3.45099 25.884C2.92921 25.3623 2.66788 24.7343 2.66699 24V8.00004C2.66699 7.26671 2.92833 6.63915 3.45099 6.11737C3.97366 5.5956 4.60121 5.33426 5.33366 5.33337H26.667C27.4003 5.33337 28.0283 5.59471 28.551 6.11737C29.0737 6.64004 29.3345 7.2676 29.3337 8.00004V24C29.3337 24.7334 29.0728 25.3614 28.551 25.884C28.0292 26.4067 27.4012 26.6676 26.667 26.6667H5.33366ZM16.0003 17.3334L26.667 10.6667V8.00004L16.0003 14.6667L5.33366 8.00004V10.6667L16.0003 17.3334Z" fill="black"/>
</svg>
