<svg width="28" height="28" viewBox="0 0 28 28" fill="none" xmlns="http://www.w3.org/2000/svg">
<g clip-path="url(#clip0_63_8151)">
<path d="M8.28016 23.3581C8.28016 24.1116 8.05671 24.8483 7.63806 25.4748C7.21941 26.1014 6.62437 26.5897 5.92818 26.8781C5.232 27.1664 4.46593 27.2419 3.72687 27.0949C2.9878 26.9479 2.30892 26.585 1.77608 26.0522C1.24324 25.5193 0.880377 24.8405 0.733367 24.1014C0.586358 23.3623 0.661808 22.5963 0.950178 21.9001C1.23855 21.2039 1.72689 20.6088 2.35344 20.1902C2.97999 19.7715 3.71661 19.5481 4.47016 19.5481C5.48063 19.5481 6.44972 19.9495 7.16424 20.664C7.87875 21.3785 8.28016 22.3476 8.28016 23.3581ZM18.7367 26.1718C18.4938 21.721 16.617 17.5164 13.4658 14.3639C10.3147 11.2114 6.11093 9.33261 1.66028 9.08774C1.53125 9.08128 1.40225 9.10114 1.28114 9.1461C1.16002 9.19107 1.04932 9.26021 0.955762 9.34931C0.862207 9.43841 0.787756 9.54561 0.736938 9.66439C0.68612 9.78317 0.659998 9.91104 0.660159 10.0402V12.8977C0.659567 13.1392 0.750716 13.3719 0.915168 13.5487C1.07962 13.7256 1.3051 13.8333 1.54598 13.8502C4.77218 14.0631 7.81117 15.4408 10.0974 17.727C12.3836 20.0133 13.7614 23.0523 13.9742 26.2785C13.9911 26.5193 14.0989 26.7448 14.2757 26.9093C14.4525 27.0737 14.6852 27.1649 14.9267 27.1643H17.7842C17.9134 27.1652 18.0414 27.1398 18.1604 27.0897C18.2795 27.0396 18.3871 26.9657 18.4767 26.8727C18.5664 26.7797 18.6361 26.6694 18.6818 26.5486C18.7275 26.4278 18.7481 26.2989 18.7424 26.1699L18.7367 26.1718ZM27.3302 26.187C27.0818 19.4536 24.2957 13.0634 19.5313 8.2989C14.7668 3.53443 8.37653 0.748394 1.64314 0.5C1.51551 0.495913 1.38837 0.517531 1.26927 0.563565C1.15016 0.6096 1.04153 0.679112 0.949829 0.767971C0.858127 0.856829 0.785228 0.963218 0.735466 1.08081C0.685703 1.19841 0.660094 1.32481 0.660159 1.4525V4.31C0.660016 4.55711 0.755911 4.7946 0.927594 4.97232C1.09928 5.15005 1.33331 5.2541 1.58027 5.2625C7.07398 5.48877 12.2817 7.77257 16.1697 11.6605C20.0576 15.5484 22.3414 20.7562 22.5677 26.2499C22.5761 26.4968 22.6801 26.7309 22.8578 26.9026C23.0356 27.0742 23.2731 27.1701 23.5202 27.17H26.3777C26.5054 27.1701 26.6318 27.1445 26.7493 27.0947C26.8669 27.0449 26.9733 26.972 27.0622 26.8803C27.151 26.7886 27.2206 26.68 27.2666 26.5609C27.3126 26.4418 27.3342 26.3146 27.3302 26.187Z" fill="black" fill-opacity="0.87"/>
</g>
<defs>
<clipPath id="clip0_63_8151">
<rect width="26.67" height="26.67" fill="white" transform="translate(0.660156 0.5)"/>
</clipPath>
</defs>
</svg>
