<svg width="32" height="32" viewBox="0 0 32 32" fill="none" xmlns="http://www.w3.org/2000/svg">
<path d="M13.4822 2.66992C15.4976 2.66984 17.473 3.23307 19.1854 4.29606C20.8977 5.35904 22.2789 6.87946 23.1731 8.68574C24.0672 10.492 24.4387 12.5123 24.2457 14.5185C24.0526 16.5247 23.3027 18.437 22.0805 20.0396L28.9185 26.8805C29.1771 27.1399 29.3272 27.4881 29.3384 27.8542C29.3496 28.2203 29.221 28.577 28.9787 28.8517C28.7364 29.1265 28.3987 29.2987 28.0341 29.3334C27.6694 29.3682 27.3052 29.2628 27.0155 29.0387L26.8799 28.9191L20.039 22.0811C18.6737 23.1221 17.0802 23.8231 15.3902 24.126C13.7002 24.4288 11.9623 24.3249 10.3205 23.8228C8.67863 23.3207 7.17995 22.4348 5.94845 21.2385C4.71695 20.0421 3.78804 18.5697 3.23858 16.9431C2.68912 15.3165 2.53491 13.5824 2.78872 11.8843C3.04252 10.1863 3.69704 8.57305 4.69811 7.17818C5.69919 5.78331 7.01803 4.64687 8.54552 3.86291C10.073 3.07896 11.7652 2.67001 13.4822 2.66992ZM13.4822 5.55334C11.3791 5.55334 9.36228 6.38875 7.87523 7.8758C6.38818 9.36285 5.55277 11.3797 5.55277 13.4827C5.55277 15.5857 6.38818 17.6026 7.87523 19.0896C9.36228 20.5767 11.3791 21.4121 13.4822 21.4121C15.5852 21.4121 17.602 20.5767 19.0891 19.0896C20.5761 17.6026 21.4115 15.5857 21.4115 13.4827C21.4115 11.3797 20.5761 9.36285 19.0891 7.8758C17.602 6.38875 15.5852 5.55334 13.4822 5.55334Z" fill="black"/>
</svg>
